<?xml version="1.0" standalone="no"?>
<!DOCTYPE svg PUBLIC "-//W3C//DTD SVG 20010904//EN"
 "http://www.w3.org/TR/2001/REC-SVG-20010904/DTD/svg10.dtd">
<svg version="1.0" xmlns="http://www.w3.org/2000/svg"
 width="225.000000pt" height="225.000000pt" viewBox="0 0 225.000000 225.000000"
 preserveAspectRatio="xMidYMid meet">
<metadata>
Created by potrace 1.11, written by Peter Selinger 2001-2013
</metadata>
<g transform="translate(0.000000,225.000000) scale(0.100000,-0.100000)"
fill="#000000" stroke="none">
<path d="M980 2224 c-282 -53 -462 -146 -641 -331 -512 -530 -361 -1401 301
-1733 151 -76 302 -110 485 -110 301 0 560 106 770 315 326 323 415 820 221
1231 -58 121 -114 203 -205 297 -155 160 -310 250 -531 309 -73 19 -337 34
-400 22z m360 -59 c324 -68 590 -281 736 -589 65 -139 85 -225 91 -401 4 -125
2 -166 -15 -246 -39 -191 -130 -364 -262 -503 -170 -178 -359 -280 -594 -321
-477 -82 -958 188 -1143 641 -58 142 -76 252 -70 429 6 176 26 262 91 401 101
213 256 379 456 487 113 61 238 99 405 121 52 7 235 -4 305 -19z"/>
<path d="M554 1785 c-44 -30 -45 -40 -42 -672 l3 -603 28 -27 27 -28 570 0
570 0 27 28 28 27 3 603 c3 632 2 642 -42 672 -31 22 -1141 22 -1172 0z m1094
-91 c21 -14 22 -23 22 -133 0 -78 -4 -121 -12 -129 -17 -17 -1019 -17 -1036 0
-8 8 -12 51 -12 129 0 110 1 119 22 133 20 14 85 16 508 16 423 0 488 -2 508
-16z m-877 -403 c21 -22 29 -39 29 -66 0 -51 -44 -95 -95 -95 -51 0 -95 44
-95 95 0 27 8 44 29 66 41 40 91 40 132 0z m290 0 c21 -22 29 -39 29 -66 0
-51 -44 -95 -95 -95 -51 0 -95 44 -95 95 0 27 8 44 29 66 41 40 91 40 132 0z
m290 0 c21 -22 29 -39 29 -66 0 -51 -44 -95 -95 -95 -51 0 -95 44 -95 95 0 27
8 44 29 66 41 40 91 40 132 0z m288 0 c24 -22 31 -38 31 -66 0 -51 -44 -95
-95 -95 -51 0 -95 44 -95 95 0 27 8 44 29 66 40 40 88 40 130 0z m-868 -290
c21 -22 29 -39 29 -66 0 -51 -44 -95 -95 -95 -51 0 -95 44 -95 95 0 27 8 44
29 66 41 40 91 40 132 0z m290 0 c21 -22 29 -39 29 -66 0 -51 -44 -95 -95 -95
-51 0 -95 44 -95 95 0 27 8 44 29 66 41 40 91 40 132 0z m290 0 c21 -22 29
-39 29 -66 0 -51 -44 -95 -95 -95 -51 0 -95 44 -95 95 0 27 8 44 29 66 41 40
91 40 132 0z m286 5 l28 -24 3 -186 3 -186 -30 -30 c-41 -41 -91 -41 -132 -1
l-29 29 0 182 0 182 29 29 c38 37 88 39 128 5z m-866 -295 c21 -22 29 -39 29
-66 0 -51 -44 -95 -95 -95 -51 0 -95 44 -95 95 0 27 8 44 29 66 41 40 91 40
132 0z m290 0 c21 -22 29 -39 29 -66 0 -51 -44 -95 -95 -95 -51 0 -95 44 -95
95 0 27 8 44 29 66 41 40 91 40 132 0z m290 0 c21 -22 29 -39 29 -66 0 -51
-44 -95 -95 -95 -51 0 -95 44 -95 95 0 27 8 44 29 66 41 40 91 40 132 0z"/>
</g>
</svg>
